<svg id="Camada_1" data-name="Camada 1" xmlns="http://www.w3.org/2000/svg" xmlns:xlink="http://www.w3.org/1999/xlink" viewBox="0 0 50 34"><defs><style>.cls-1{fill:url(#Gradiente_sem_nome_2);}.cls-2{fill:#fff;}</style><radialGradient id="Gradiente_sem_nome_2" cx="413.29" cy="-342.31" r="72.13" gradientTransform="matrix(0.67, 0, 0, -0.74, -266.57, -244.46)" gradientUnits="userSpaceOnUse"><stop offset="0" stop-color="#6ad1fa"/><stop offset="1" stop-color="#0081ce"/></radialGradient></defs><title>logo-cartao</title><g id="Grupo_29" data-name="Grupo 29"><rect id="Retângulo_2" data-name="Retângulo 2" class="cls-1" width="50" height="34" rx="4"/><g id="Grupo_9" data-name="Grupo 9"><g id="Grupo_4" data-name="Grupo 4"><path id="Caminho_5" data-name="Caminho 5" class="cls-2" d="M29.66,14.89V16.2h3.78v1.48H29.66v1.43h4.23l2-2.11L34,14.9Z"/><path id="Caminho_6" data-name="Caminho 6" class="cls-2" d="M12.64,17.54H15l-1.18-2.88Z"/><path id="Caminho_7" data-name="Caminho 7" class="cls-2" d="M42.39,12.24H38.18L36.85,13.7,35.6,12.24H23.45L22.4,14.7l-1.08-2.46H16.37v1.13l-.54-1.13H11.61l-4,9.5h4.8L13,20.23h1.4l.63,1.51h5.43V20.59L21,21.75H23.8l.49-1.18v1.17H35.44l1.37-1.47,1.3,1.47H42.4V20.08L39.7,17l2.7-2.91ZM25.46,20.41V15.08L23.1,20.41H21.68l-2.35-5.34v5.34H16l-.62-1.52H12.05l-.63,1.52H9.67l2.9-6.81H15l2.75,6.45V13.6h2.64l2.12,4.62,1.94-4.62h2.69v6.81ZM37.86,17l3,3.39h-2l-2-2.25-2.07,2.25h-6.4V13.6h6.5l2,2.24,2.06-2.24H41Z"/></g></g></g></svg>