<svg id="Camada_1" data-name="Camada 1" xmlns="http://www.w3.org/2000/svg" viewBox="0 0 50 34"><defs><style>.cls-1{fill:#fff;}.cls-2{fill:#efefef;}.cls-3{fill:#0a0a0a;}.cls-4{isolation:isolate;}</style></defs><title>logo-cartao</title><g id="Grupo_650" data-name="Grupo 650"><path class="cls-1" d="M44.76,1H5.22A4.46,4.46,0,0,0,1,5.62V28.36A4.47,4.47,0,0,0,5.24,33H44.79A4.47,4.47,0,0,0,49,28.38V5.64A4.47,4.47,0,0,0,44.76,1Z"/><path class="cls-2" d="M50,5.66A5.44,5.44,0,0,0,44.79,0H5.19A5.44,5.44,0,0,0,0,5.64v22.7A5.44,5.44,0,0,0,5.21,34h39.6A5.44,5.44,0,0,0,50,28.36ZM44.79,33H5.24A4.47,4.47,0,0,1,1,28.36V5.62A4.46,4.46,0,0,1,5.22,1H44.76A4.47,4.47,0,0,1,49,5.64V28.38A4.47,4.47,0,0,1,44.79,33Z"/><g id="Grupo_19" data-name="Grupo 19"><g id="Retângulo_6" data-name="Retângulo 6"><rect class="cls-3" x="15.26" y="5.56" width="1.66" height="13.8"/></g><g id="Retângulo_11" data-name="Retângulo 11"><rect class="cls-3" x="36.09" y="5.56" width="1.66" height="13.8"/></g><g id="Retângulo_7" data-name="Retângulo 7"><rect class="cls-3" x="32.23" y="5.56" width="1.66" height="13.8"/></g><g id="Retângulo_8" data-name="Retângulo 8"><rect class="cls-3" x="19.54" y="5.56" width="3.33" height="13.8"/></g><g id="Retângulo_12" data-name="Retângulo 12"><rect class="cls-3" x="40.35" y="5.56" width="3.33" height="13.8"/></g><g id="Caminho_19" data-name="Caminho 19"><path class="cls-3" d="M25.28,5.56v13.8H29.5V5.56Z"/></g><g id="Retângulo_9" data-name="Retângulo 9"><rect class="cls-3" x="10.24" y="5.56" width="3.33" height="13.8"/></g><g id="Retângulo_10" data-name="Retângulo 10"><rect class="cls-3" x="6.55" y="5.56" width="1.66" height="13.8"/></g></g><g id="BOLETO" class="cls-4"><g class="cls-4"><path class="cls-3" d="M10.07,29.15V23.57h1.85a2.69,2.69,0,0,1,1.55.39A1.28,1.28,0,0,1,14,25.1a1.17,1.17,0,0,1-.79,1.14,1.27,1.27,0,0,1,.8.45,1.35,1.35,0,0,1,.26.84,1.42,1.42,0,0,1-.53,1.21,2.4,2.4,0,0,1-1.51.41Zm1.13-3.24H12a1.15,1.15,0,0,0,.7-.18.66.66,0,0,0,.24-.54.67.67,0,0,0-.24-.57,1.18,1.18,0,0,0-.73-.19H11.2Zm0,.77v1.61h1.05a1,1,0,0,0,.68-.19.69.69,0,0,0,.24-.57.85.85,0,0,0-.23-.63,1,1,0,0,0-.7-.22Z"/><path class="cls-3" d="M20.07,26.86a2.34,2.34,0,0,1-.65,1.7,2.28,2.28,0,0,1-1.7.67,2.26,2.26,0,0,1-1.7-.67,2.34,2.34,0,0,1-.65-1.7v-1a2.37,2.37,0,0,1,.65-1.7,2.22,2.22,0,0,1,1.69-.67,2.24,2.24,0,0,1,1.7.67,2.34,2.34,0,0,1,.66,1.7Zm-1.12-1a1.69,1.69,0,0,0-.33-1.07,1.09,1.09,0,0,0-.91-.42,1.05,1.05,0,0,0-.89.42,1.68,1.68,0,0,0-.32,1.07v1A1.7,1.7,0,0,0,16.82,28a1.08,1.08,0,0,0,.9.41,1.1,1.1,0,0,0,.9-.41A1.71,1.71,0,0,0,19,26.86Z"/><path class="cls-3" d="M22.49,28.29H25v.86H21.36V23.57h1.13Z"/><path class="cls-3" d="M29.38,26.7H27.29v1.59h2.48v.86H26.16V23.57h3.6v.86H27.29v1.41h2.09Z"/><path class="cls-3" d="M34.89,24.43H33.28v4.72H32.15V24.43H30.56v-.86h4.33Z"/><path class="cls-3" d="M40.35,26.86a2.34,2.34,0,0,1-.65,1.7,2.49,2.49,0,0,1-3.4,0,2.34,2.34,0,0,1-.65-1.7v-1a2.37,2.37,0,0,1,.65-1.7,2.48,2.48,0,0,1,3.39,0,2.34,2.34,0,0,1,.66,1.7Zm-1.12-1a1.69,1.69,0,0,0-.33-1.07,1.09,1.09,0,0,0-.91-.42,1.05,1.05,0,0,0-.89.42,1.68,1.68,0,0,0-.32,1.07v1A1.76,1.76,0,0,0,37.1,28a1.08,1.08,0,0,0,.9.41,1.09,1.09,0,0,0,.9-.41,1.71,1.71,0,0,0,.33-1.09Z"/></g></g></g></svg>