<?xml version="1.0" encoding="utf-8"?>
<!-- Generator: Adobe Illustrator 23.0.2, SVG Export Plug-In . SVG Version: 6.00 Build 0)  -->
<svg version="1.1" id="Camada_1" xmlns="http://www.w3.org/2000/svg" xmlns:xlink="http://www.w3.org/1999/xlink" x="0px" y="0px"
	 viewBox="0 0 50 34" style="enable-background:new 0 0 50 34;" xml:space="preserve">
<style type="text/css">
	.st0{fill:#FFFFFF;}
	.st1{fill:#EEEEEF;}
	.st2{fill:#004A98;}
</style>
<title>logo-cartao</title>
<path class="st0" d="M45.9,1H4.1C2.4,1,1,2.4,1,4.2v25.7C1,31.6,2.4,33,4.1,33h41.8c1.7,0,3.1-1.4,3.1-3.1V4.2C49,2.4,47.6,1,45.9,1
	z"/>
<path class="st1" d="M45.9,0H4.1C1.8,0,0,1.9,0,4.2v25.7C0,32.1,1.8,34,4.1,34c0,0,0,0,0,0h41.8c2.3,0,4.1-1.9,4.1-4.2V4.2
	C50,1.9,48.2,0,45.9,0C45.9,0,45.9,0,45.9,0z M49,29.9c0,1.7-1.4,3.1-3.1,3.1H4.1C2.4,33,1,31.6,1,29.8V4.2C1,2.4,2.4,1,4.1,1h41.8
	C47.6,1,49,2.4,49,4.2V29.9z"/>
<g>
	<path class="st2" d="M16.8,17c0,2.4,1.5,4.5,3.7,5.3V11.7C18.3,12.5,16.8,14.6,16.8,17z"/>
	<path class="st2" d="M24.6,11.7v10.7c2.1-0.8,3.7-2.9,3.7-5.3C28.2,14.6,26.7,12.5,24.6,11.7z"/>
	<path class="st2" d="M27.1,7.2h-4.6c-5.4,0-9.9,4.1-9.9,9.9c0,5.4,4.5,9.8,9.9,9.7h4.6c5.4,0,10.3-4.4,10.3-9.7
		C37.4,11.2,32.5,7.2,27.1,7.2z M22.5,26c-5,0-9-4-9-9c0-5,4-9,9-9c5,0,9,4,9,9C31.5,22,27.5,26,22.5,26z"/>
</g>
</svg>
