<svg id="Camada_1" data-name="Camada 1" xmlns="http://www.w3.org/2000/svg" viewBox="0 0 50 34"><defs><style>.cls-1{fill:#0a0a0a;}.cls-2{fill:#fbc708;}.cls-3{fill:#ef3221;}.cls-4{fill:#fff;}.cls-5{fill:#39a7e4;}</style></defs><title>logo-cartao</title><g id="Grupo_31" data-name="Grupo 31"><g id="Grupo_626" data-name="Grupo 626"><path id="Caminho_17" data-name="Caminho 17" class="cls-1" d="M4.82.14H45.18A5.07,5.07,0,0,1,50,5.45V28.84a5.07,5.07,0,0,1-4.81,5.3H4.82A5.07,5.07,0,0,1,0,28.84V5.45A5.07,5.07,0,0,1,4.82.14Z"/><g id="Grupo_624" data-name="Grupo 624"><g id="Grupo_17" data-name="Grupo 17"><path id="Caminho_11" data-name="Caminho 11" class="cls-2" d="M41.38,16.7,40,17l-1.49.3c-.1,0-.1,0-.13-.1a3.6,3.6,0,0,0-2.55-2.66,3.53,3.53,0,0,0-2,0l-.06,0c-.13,0-.13,0-.17-.1l-.39-1.15c-.16-.49-.32-1-.49-1.47,0-.05,0-.1,0-.15a3.58,3.58,0,0,1,.73-.2,6.59,6.59,0,0,1,6,1.67,6.41,6.41,0,0,1,1.93,3.27c0,.07,0,.16.06.23Z"/><path id="Caminho_12" data-name="Caminho 12" class="cls-3" d="M41.38,19.06c-.06.07,0,.15-.05.22a6.72,6.72,0,0,1-8.13,4.9l-.36-.1h-.05c-.11,0-.11,0-.07-.15.12-.36.24-.73.37-1.1l.52-1.55c0-.14,0-.14.2-.1a3.57,3.57,0,0,0,3.6-1,3.43,3.43,0,0,0,.93-1.66c0-.15,0-.15.19-.12L41.3,19l.08,0Z"/><path id="Caminho_13" data-name="Caminho 13" class="cls-4" d="M8.83,17.61A6.87,6.87,0,0,1,12,11.83a6.27,6.27,0,0,1,2.65-.89,6.84,6.84,0,0,1,5.14,1.54,6.33,6.33,0,0,1,1.55,2,8.92,8.92,0,0,1,.55,1.22c.06.17.07.14-.09.21l-4.24,1.85L10,21A.08.08,0,0,0,10,21c-.08.05-.13,0-.17-.05a6.93,6.93,0,0,1-.88-2.41A7.93,7.93,0,0,1,8.83,17.61Zm3.05,0,6-2.6s0-.05,0-.07a3.84,3.84,0,0,0-1.35-1,3.11,3.11,0,0,0-2-.09,3.71,3.71,0,0,0-1.81,1.06,3.24,3.24,0,0,0-.84,1.88,2.89,2.89,0,0,0,0,.83Z"/><path id="Caminho_14" data-name="Caminho 14" class="cls-4" d="M23.24,15V8.78c0-.22,0-.19.2-.19h2.47c.21,0,.18,0,.18.17V20.85c0,.19,0,.19.18.26l1.68.66c.13.05.13.05.07.18l-1,2.32c-.05.12-.06.12-.18.07-.69-.28-1.38-.54-2.06-.83a2.37,2.37,0,0,1-1.48-1.89,2.81,2.81,0,0,1,0-.65Z"/><path id="Caminho_15" data-name="Caminho 15" class="cls-5" d="M32.46,20.4l-.8.89-1.14,1.29c-.12.12-.1.12-.21,0a6.47,6.47,0,0,1-2-3.63,6.57,6.57,0,0,1,2-6.15c.17-.17.17-.17.32,0l1.8,2h0c.11.12.09.1,0,.2a3.64,3.64,0,0,0,0,5.27Z"/><path id="Caminho_16" data-name="Caminho 16" class="cls-4" d="M11.78,23.18l1.62-2.41a.26.26,0,0,1,.13.08,2.89,2.89,0,0,0,2.23.59,4.48,4.48,0,0,0,1.59-.54,3.46,3.46,0,0,0,1.16-1.06c.07-.1.07-.1.17,0l.67.44,1.56,1.05c.17.11.16.08.05.24a6.09,6.09,0,0,1-1.62,1.62,7.09,7.09,0,0,1-2.93,1.15,6.29,6.29,0,0,1-4.07-.77A4.73,4.73,0,0,1,11.78,23.18Z"/></g></g></g></g></svg>