<svg id="Camada_1" data-name="Camada 1" xmlns="http://www.w3.org/2000/svg" viewBox="0 0 50 34"><defs><style>.cls-1{fill:#fff;}.cls-2{fill:#efefef;}.cls-3{fill:#ff4e00;}.cls-4{fill:#ff9e00;}.cls-5{fill:red;}</style></defs><title>logo-cartao</title><g id="Grupo_655" data-name="Grupo 655"><path class="cls-1" d="M45.88,1H4.12A3.17,3.17,0,0,0,1,4.15V29.84A3.17,3.17,0,0,0,4.12,33H45.88A3.17,3.17,0,0,0,49,29.85V4.16A3.17,3.17,0,0,0,45.88,1Z"/><path class="cls-2" d="M45.88,0H4.11A4.14,4.14,0,0,0,0,4.16V29.84A4.14,4.14,0,0,0,4.12,34H45.89A4.14,4.14,0,0,0,50,29.84V4.16A4.14,4.14,0,0,0,45.88,0ZM49,29.85A3.17,3.17,0,0,1,45.88,33H4.12A3.17,3.17,0,0,1,1,29.84V4.15A3.17,3.17,0,0,1,4.12,1H45.88A3.17,3.17,0,0,1,49,4.16Z"/><g id="Grupo_14" data-name="Grupo 14"><g id="Caminho_10" data-name="Caminho 10"><path class="cls-3" d="M25.44,23.09l.38-.3.36-.31.34-.33.32-.33.3-.36.28-.36.25-.37.23-.39.21-.39.18-.4.15-.41.13-.41.1-.43.07-.43.05-.44v-.89l-.05-.43-.07-.43-.1-.42-.13-.42-.15-.41-.18-.4-.21-.39-.23-.38-.25-.37-.28-.36-.3-.35-.32-.34-.34-.32-.36-.31-.38-.3L25,10.62H25l-.4.29-.38.3-.36.31-.35.32-.32.34-.3.35-.27.36-.26.37-.23.38L21.9,14l-.17.4-.16.41-.13.42-.1.42-.07.43,0,.43,0,.45,0,.44,0,.44.07.43.1.43.13.41.16.41.17.4.21.39.23.39.26.37.27.36.3.36.32.33.35.33.36.31.38.3.4.29,0,0,0,0Z"/></g><g id="Caminho_8" data-name="Caminho 8"><path class="cls-4" d="M40.37,16.53l0-.44-.06-.44-.09-.43-.1-.42L40,14.38,39.82,14l-.17-.39-.19-.39-.2-.38L39,12.45l-.24-.36-.26-.35-.28-.32L38,11.1l-.31-.31-.32-.29L37,10.23,36.64,10l-.36-.24-.38-.23-.4-.21-.4-.19-.41-.18-.42-.16-.44-.14-.44-.12-.45-.09-.46-.08L32,8.26l-.48,0h-.95l-.48,0-.46.06-.46.08-.45.09-.44.12-.43.14-.42.16L27,9.09l-.4.19-.39.21-.38.23L25.5,10l-.35.27-.31.25,0,0,.33.29.3.31.3.32.27.32.26.35.24.36.22.36.21.38.19.39.16.39.15.41.12.42.11.42.08.43.06.44,0,.44v.91l0,.44-.06.44-.08.44-.11.42-.12.42-.15.41-.16.4-.19.38-.21.38-.22.37-.24.36-.26.34-.27.33-.3.32-.3.31-.33.29,0,0,.31.26.35.26.37.24.38.23.39.21.4.2.41.18.42.15.43.14.44.12.45.1.46.07.46.06.48,0h.95l.48,0,.46-.06.46-.07.45-.1.44-.12.44-.14.42-.15.41-.18.4-.2.4-.21.38-.23.36-.24.35-.26.34-.28.32-.29.31-.31.3-.32.28-.33.26-.34.24-.36.22-.37.21-.37.18-.39.17-.4L40,19.6l.12-.42.11-.42.08-.44.06-.44,0-.44,0-.46Z"/></g><g id="Caminho_9" data-name="Caminho 9"><path class="cls-5" d="M24.81,23.2l-.31-.3-.29-.32-.28-.34-.25-.34-.25-.36-.22-.36L23,20.8l-.18-.39-.17-.4-.14-.41-.13-.42-.1-.42-.08-.44-.06-.44,0-.44v-.9l0-.45.06-.44.08-.43.1-.42.13-.41.14-.41.17-.4.18-.39.21-.38.22-.36.25-.36.25-.34.28-.33.29-.32.31-.31.32-.29,0,0-.32-.25L24.49,10l-.36-.25-.38-.23-.39-.21L23,9.09l-.41-.18-.42-.16-.43-.13-.45-.12-.44-.1-.46-.08-.47-.05-.47,0h-1l-.47,0-.47.05-.46.08-.45.1-.44.12-.43.13-.42.16-.42.18-.4.19-.39.21-.38.23-.37.25-.35.26-.34.27-.32.29L12,11.1l-.29.32-.28.33-.26.34-.24.36-.23.36-.2.38-.19.39-.17.4-.14.41-.13.41-.1.42-.08.43-.06.44,0,.45v.9l0,.44.06.44.08.44.1.42.13.42.14.41.17.4.19.39.2.38.23.36.24.36.26.34.28.34.29.32.31.3.32.29.34.28.35.26.37.24.38.23.39.21.4.2.42.18.42.15.43.14.44.12.45.1.46.07.47.06.47,0h1l.47,0,.47-.06.46-.07.44-.1.45-.12.43-.14.42-.15.41-.18.4-.2.39-.21.38-.23.36-.24.35-.26.32-.26,0,0Z"/></g></g></g></svg>