<?xml version="1.0" encoding="utf-8"?>
<!-- Generator: Adobe Illustrator 23.0.2, SVG Export Plug-In . SVG Version: 6.00 Build 0)  -->
<svg version="1.1" id="Camada_1" xmlns="http://www.w3.org/2000/svg" xmlns:xlink="http://www.w3.org/1999/xlink" x="0px" y="0px"
	 viewBox="0 0 50 34" style="enable-background:new 0 0 50 34;" xml:space="preserve">
<style type="text/css">
	.st0{fill:#FFFFFF;}
	.st1{fill:#EEEEEF;}
	.st2{fill:#25469F;}
</style>
<title>logo-cartao</title>
<path class="st0" d="M45.9,1H4.1C2.4,1,1,2.4,1,4.2v25.7C1,31.6,2.4,33,4.1,33h41.8c1.7,0,3.1-1.4,3.1-3.1V4.2C49,2.4,47.6,1,45.9,1
	z"/>
<path class="st1" d="M45.9,0H4.1C1.8,0,0,1.9,0,4.2v25.7C0,32.1,1.8,34,4.1,34c0,0,0,0,0,0h41.8c2.3,0,4.1-1.9,4.1-4.2V4.2
	C50,1.9,48.2,0,45.9,0C45.9,0,45.9,0,45.9,0z M49,29.9c0,1.7-1.4,3.1-3.1,3.1H4.1C2.4,33,1,31.6,1,29.8V4.2C1,2.4,2.4,1,4.1,1h41.8
	C47.6,1,49,2.4,49,4.2V29.9z"/>
<g>
	<polygon class="st2" points="21.4,11.2 18.2,21.8 21.1,21.8 24.3,11.2 	"/>
	<path class="st2" d="M16.9,11.2l-2.6,4.5c-0.5,0.8-0.9,1.6-1.2,2.5l0,0c0.1-0.9-0.1-2.1-0.1-2.7l-0.3-4.2H7.8v0.3
		c1.1-0.1,2.1,0.7,2.2,1.8c0,0,0,0,0,0v0.1l1,8.4h3l6-10.6L16.9,11.2z"/>
	<path class="st2" d="M37.4,11.2l-5.7,10.5h3.1l0.7-1.6h3.6l0.1,1.6h2.9l-1-10.5L37.4,11.2z M36.6,18.2l1.1-2.2
		c0.3-0.8,1.1-2.3,1.3-2.9H39c0,0.8,0,1.7,0,2.5l0.2,2.7L36.6,18.2z"/>
	<path class="st2" d="M29.7,15.6L29,15.2c-0.9-0.5-1.3-1-1-1.5c0.3-0.4,0.8-0.6,1.2-0.5c0.8,0.1,1.6,0.4,2.2,1l1.6-1.8
		C32,11.5,30.7,11,29.4,11c-2.2,0-3.5,0.9-4,2.1c-0.8,1.9-0.1,3,1.6,4.1l0.6,0.4c1.1,0.6,1.6,1,1.2,1.7c-0.3,0.4-0.8,0.7-1.3,0.6
		c-1.1,0-2.2-0.3-3.1-1l-1.4,2c1.3,0.8,2.8,1.2,4.4,1.2l0,0c1.8,0,3.5-0.5,4.4-2.6C32.2,18.2,31.7,16.9,29.7,15.6z"/>
</g>
</svg>
